<?xml version="1.0" encoding="UTF-8" standalone="no"?>
<!-- Generator: Adobe Illustrator 16.0.0, SVG Export Plug-In . SVG Version: 6.00 Build 0)  -->

<svg
   xmlns:osb="http://www.openswatchbook.org/uri/2009/osb"
   xmlns:dc="http://purl.org/dc/elements/1.1/"
   xmlns:cc="http://creativecommons.org/ns#"
   xmlns:rdf="http://www.w3.org/1999/02/22-rdf-syntax-ns#"
   xmlns:svg="http://www.w3.org/2000/svg"
   xmlns="http://www.w3.org/2000/svg"
   xmlns:sodipodi="http://sodipodi.sourceforge.net/DTD/sodipodi-0.dtd"
   xmlns:inkscape="http://www.inkscape.org/namespaces/inkscape"
   version="1.1"
   id="Layer_2"
   x="0px"
   y="0px"
   width="547px"
   height="450px"
   viewBox="0 0 547 450"
   enable-background="new 0 0 547 450"
   xml:space="preserve"
   inkscape:version="0.91 r13725"
   sodipodi:docname="logo_white (4e copie).svg"><metadata
     id="metadata4456"><rdf:RDF><cc:Work
         rdf:about=""><dc:format>image/svg+xml</dc:format><dc:type
           rdf:resource="http://purl.org/dc/dcmitype/StillImage" /></cc:Work></rdf:RDF></metadata><defs
     id="defs4454"><linearGradient
       id="linearGradient5962"
       osb:paint="solid"><stop
         style="stop-color:#000000;stop-opacity:1;"
         offset="0"
         id="stop5964" /></linearGradient></defs><sodipodi:namedview
     pagecolor="#ffffff"
     bordercolor="#666666"
     borderopacity="1"
     objecttolerance="10"
     gridtolerance="10"
     guidetolerance="10"
     inkscape:pageopacity="0"
     inkscape:pageshadow="2"
     inkscape:window-width="1855"
     inkscape:window-height="1056"
     id="namedview4452"
     showgrid="false"
     inkscape:zoom="2.0422222"
     inkscape:cx="273.5"
     inkscape:cy="185.82699"
     inkscape:window-x="65"
     inkscape:window-y="24"
     inkscape:window-maximized="1"
     inkscape:current-layer="Layer_2" /><g
     id="g4358"
     style="stroke:#000000;stroke-opacity:1;opacity:0.5"><path
       fill="#FFFFFF"
       d="M466,271.5c-3.5,1.25-14.25-9-17.25-12.25c-1-2.5-0.75-11.5-1.75-16c17-3,27-16.5,29.5-28   c-2.25,0.5-12.5,1.25-20.75,0s-15.25,0.5-22.5,2.25c-16-44.25-102.25-91.75-174.5-95s-111.5,14-135.5,30   c-20.5,7.75-28.25,20.75-30,32c-1,10.5,15,17.75,15,29.5c0,8.764-6.25,10.25-9.5,13.5s-5,15.25-1.75,22.5   c-0.5-3.75,5.75-10.75,10.25-13.75s2.75-7.75,3.5-17.75c1.5,10.25,15.75,25.5,22.5,29.75c1.25,2.25,4.25,11.5,4.25,11.5   l-0.25,10.75c0,0,13.25,25.25,14,34.25S139.5,314,136.5,311c-3,3-11.5,1.25-11.5,1.25l1.75,15.5H430   c-0.375-6-7.375-17.125-9.875-19.5l-1-4.625l-1,3.75l-2.375-0.25c0,0-1,3.375-1.875,3.875c-0.375-2,1.5-8.125,1.5-8.125   l-3.75,4.625L411,300.375l-1.625,7.25l-1.875-0.375l-0.75-3.625l-0.625,4.25l-1.75-0.125l-0.625-3.125l-0.625,3l-2.75-2.875   l0.125,3.875l-2.125-3.125c0,0,1,3.625,0.625,5.375c0-0.5-2.375-6-4-8.875c1.875,6.75-1.125,7.125-4.25,10   c0.375-0.25,0.5-5.625,0.25-6.125c-0.625,1.75-1.5,3.5-3.125,4.125c-1-3.5,1.75-8.25,3.125-10.375c-2,1.375-4.375,2.5-5.375,6.25   c0-1.25-1-6.25-2.375-8.125c0.625,2.75-0.5,4.75,0,8.75c-2.75-4.25-5.5-15.25-6-27.5s3-23,5-29.75c1,7.75,1,9.75-0.25,15.5   s0,17,0,23.75c24.75,14.75,41.25,6.25,52.75,5.5c4.66-0.304,10,3,13,3.5s4.5-2.75,4.5-2.75s-1.75-0.5-2.75-1   c2.25-2,4.75,0.25,7.25,0.75s7.5,0.5,8.5-1.5s7.5-17,9-20.75C473.75,268,469.5,270.25,466,271.5z M106.667,196.5   c-10.5-17.667-1-22.833,3.167-24.833C107.167,176,106.5,189.167,106.667,196.5z M362,310.875c0,0-6.75,0.5-6.5-1.75s2.5-4,2.5-4   l-3.25,1.625l-1.625-3.125l-0.5,3.375c0,0-2.875-1.125-5-0.5c2.625,0.5,3.625,4.375,2,5.375s-5.375-4.375-5.125-8.375   c-0.25-0.375-0.625,2-0.625,2L342,304.875l1.375,4.625l-10.5-8.5c0,0-1.125-10.75-0.875-12.375s6-8.5,6.875-11.5   c-3-4.25-8-11.125-8.125-13.625c-1.75,1.875-15.625,7.75-20,8.75c1.375,8.125,4.625,12.75,5.625,14.875c0,4.5-0.125,19-0.125,19   l-3.375-6.375l0.875,5.875L310,303.75l3,4.75l-2.375-1l-0.25,2.5l-4.625-6c0,0,1.625-2.5,1.375-6.625   c-0.75,1.125-2.875,6.375-7.375,7.625c0.25-0.75-0.375-2.625-0.375-2.625l-2.375,1.25l4-3.625l-12.375,6.125l-2.625-5.75   l-0.625,2.875l-4.125-3.625l2.125,7l-2.25-2l-1.25-0.125l-0.125-3.875l-1.5,2c0,0-5.625-5.125-8.125-10.625   c0.5,3.875,5.375,10.125,6.5,11.75c-0.125,1-1.625,2-1.625,2l-4.375-6.375l0.25,5.25L269,306l-2.125-3.125l-0.75,3.625l-5.625-1.25   c0,0-4.375-8.125-7.625-11.375c1,4.125,1.5,9.125,1.5,9.125s-2.625-4.5-2.625-6c-0.625,2.5,0,4.25,0,4.25l-6.125-4   c0,0,4.875,4.375,5.625,6.5c-0.125,3.75-1.25,5.75-2.875,5.125c0.5-1.75,0.625-3.625,0.625-3.625l-2.5,1.375l-0.75-3.75L245,307.25   l-4-5.125l-0.5,2.375c0,0-6-4-6.625-6.875c0,1.75,2.125,6.5,2.875,7.5c-2.375-0.875-3.125-4-3.125-4l-0.875,4.375l-2.875-5.5   l-1,4.75l-1.5,2.125l-0.125-4.25l-2.125,1.875c0,0-0.625-4.25,0.875-7.75c-0.75-0.25-2.375,1.875-2.375,1.875l-0.375-6l-1.75,7.625   l-0.375,7.75l-2.75-0.125l-1-7.5l-2.5,7.375c0,0-4.625-3.875-5.625-5.625c-0.75,2,0.625,4.625,0.625,4.625s-7-4.625-10.375-7.5   c3.375-1.75,4.25-5.5,2.25-9.25c0.375,2.625-1.25,8.125-5.125,7.5c-7.75-11.375-11.875-27.25-15-35.625   c-4-2.375-9.75-9.5-10.25-10.125c-1.625,5.625-6.5,20-5.625,28.125c5.125,6,12.625,15.75,12.625,17.25s-1.625,5.125-3.5,5.5   c-0.875-3.5-1.25-6-1.25-6l-1.75,6.125l-1.25-2.625l0.25-9.375l-4,10.375c0,0-1.75-1-1.875-1.875s2.375-4.5,2.375-4.5l-3,0.5   l3.75-3.875l-4,1.375c0,0-2.25-4.5-2.25-10s1.375-24.875,8.25-35.125c7.625-9.625,20.375-19.75,28.375-28.5   c-3.625,10.75-20,22.375-24.625,29.125c6.25,9,22.5,30.625,69.375,30.625c20.875,0,68.5-5.5,86.125-17.875   c-2.875-7.125-5.625-22.75,0.375-35.5c-0.625,8-1.5,20.875,1.625,30.125c3.924,11.616,19.125,35,26.375,40.375   c0,0.375-0.125,2.25-0.125,2.25l7,8.75L362,310.875z"
       id="path4360"
       style="stroke:#000000;stroke-opacity:1" /><path
       fill="#FFFFFF"
       d="M448,212.5c0,0,4.167-9.333,4.5-12.5c-1.667,3.5-16.5,6-22,5.667c0.667,1,5.167,9.333,5.167,9.333   C436.501,214.5,442.5,212.5,448,212.5z"
       id="path4362"
       style="stroke:#000000;stroke-opacity:1" /></g><g
     id="g4364"
     style="stroke:#000000;stroke-opacity:1;opacity:0.5"><rect
       x="133.667"
       y="404.833"
       fill="#FFFFFF"
       width="23.833"
       height="2.167"
       id="rect4366"
       style="stroke:#000000;stroke-opacity:1" /><rect
       x="140.833"
       y="339.667"
       fill="#FFFFFF"
       width="9.667"
       height="66"
       id="rect4368"
       style="stroke:#000000;stroke-opacity:1" /><rect
       x="127.667"
       y="338.5"
       fill="#FFFFFF"
       width="1.667"
       height="12.333"
       id="rect4370"
       style="stroke:#000000;stroke-opacity:1" /><path
       fill="#FFFFFF"
       d="M144.5,339.667h-16l0.833,6.333c2.917-3.25,6.417-4.875,14.542-4.875   C143.875,340.5,144.5,339.667,144.5,339.667z"
       id="path4372"
       style="stroke:#000000;stroke-opacity:1" /><rect
       x="160.833"
       y="338.5"
       fill="#FFFFFF"
       width="1.667"
       height="12.333"
       id="rect4374"
       style="stroke:#000000;stroke-opacity:1" /><path
       fill="#FFFFFF"
       d="M145.667,339.667h16L160.833,346c-2.917-3.25-6.417-4.875-14.542-4.875   C146.292,340.5,145.667,339.667,145.667,339.667z"
       id="path4376"
       style="stroke:#000000;stroke-opacity:1" /></g><path
     fill="#FFFFFF"
     d="M491.443,159.131l-0.894,0.75l-6.644-7.916l-3.105-3.702l-0.751-0.895l-2.356-2.808l-7.393-8.809l0.894-0.75  l-1.071-1.276l-9.447,7.928l1.071,1.276l3.702-3.107c3.775,0.125,6.901,1.373,11.057,5.734l-48.73,40.895l-4.606-5.489l-1.66,1.393  l15.319,18.255l1.66-1.393l-4.5-5.362l48.661-40.836c2.982,4.34,3.545,7.442,3.049,10.933l-3.702,3.107l1.071,1.276l9.447-7.928  L491.443,159.131z"
     id="path4378"
     style="stroke:#000000;stroke-opacity:1;opacity:0.5" /><path
     fill="#FFFFFF"
     d="M104.634,146l-5.871,3.812L64.171,96.531c4.671-2.43,7.819-2.61,11.223-1.691l2.632,4.054l1.397-0.908  l-6.716-10.344l-1.397,0.908l0.635,0.979l-8.667,5.627l0,0l-5.032,3.268l0,0l-12.721,8.259l-0.635-0.979l-1.397,0.907l6.716,10.345  l1.398-0.908l-2.634-4.057l0.002,0.003c0.585-3.731,2.205-6.682,7.041-10.274l34.641,53.357l-6.011,3.902l1.181,1.817l19.989-12.978  L104.634,146z"
     id="path4380"
     style="stroke:#000000;stroke-opacity:1;opacity:0.5" /><g
     id="g4382"
     style="stroke:#000000;stroke-opacity:1;opacity:0.5"><rect
       x="319.584"
       y="338.5"
       fill="#FFFFFF"
       width="1.666"
       height="12.333"
       id="rect4384"
       style="stroke:#000000;stroke-opacity:1" /><rect
       x="319.584"
       y="395.667"
       fill="#FFFFFF"
       width="1.666"
       height="12.333"
       id="rect4386"
       style="stroke:#000000;stroke-opacity:1" /><g
       id="g4388"
       style="stroke:#000000;stroke-opacity:1"><path
         fill="#FFFFFF"
         d="M302.875,383.75h-22.5v-1.5h22.5c6.5,0,8.75,0,8.75-4.25c0.125,0.125,1.625,0,1.625,0v11.625h-1.625    C311.625,386.375,311.625,383.75,302.875,383.75z"
         id="path4390"
         style="stroke:#000000;stroke-opacity:1" /><rect
         x="286.834"
         y="339.667"
         fill="#FFFFFF"
         width="9.666"
         height="66"
         id="rect4392"
         style="stroke:#000000;stroke-opacity:1" /><path
         fill="#FFFFFF"
         d="M319.584,346l0.833-6.333h-39.792v1.958c0,0,21,0,24.25,0S316.418,342.875,319.584,346z"
         id="path4394"
         style="stroke:#000000;stroke-opacity:1" /><path
         fill="#FFFFFF"
         d="M319.584,400.5l0.833,6.333h-39.792v-1.958c0,0,21,0,24.25,0S316.418,403.625,319.584,400.5z"
         id="path4396"
         style="stroke:#000000;stroke-opacity:1" /></g></g><path
     fill="#FFFFFF"
     d="M458.093,137.999l8.157-9.249l-1.059-0.934l-0.771,0.875l-18.14-16.106l-6.144-5.419L435,102l-1.296,1.468  c0,0,2.876,3.171,5.139,5.166l-26.873,30.468l-4.104-3.621l-0.993,1.125l4.105,3.621l-13.974,15.843  c-2.262-1.995-3.946-3.481-3.946-3.481l-1.295,1.468l24.762,21.84l-0.772,0.875l1.059,0.934l8.158-9.249l-1.059-0.934l-3.197,3.625  c-4.079,0.569-10.176-3.143-12.243-4.964c-0.729-0.643-2.865-2.528-5.322-4.695l13.974-15.843l4.052,3.574  c5.563,4.905,3.826,6.873,1.676,9.311l1.032,0.911l7.689-8.718c0,0-1.036-0.748-1.032-0.911c-2.812,3.187-4.242,1.926-8.373-1.718  l-4.052-3.574l26.873-30.467c2.456,2.167,4.594,4.052,5.322,4.695c2.066,1.822,9.977,10.574,9.922,14.692l-3.197,3.625  L458.093,137.999z"
     id="path4398"
     style="stroke:#000000;stroke-opacity:1;opacity:0.5" /><path
     fill="#FFFFFF"
     d="M187.276,115.653l-2.456-12.253l-1.415,0.459l0.99,4.79l0,0c-2.025,3.958-8.673,7.416-11.365,8.279  c-0.948,0.304-3.721,1.192-6.9,2.208l-5.001-20.617l5.415-1.757c7.48-2.433,8.075,0.141,8.803,3.333l1.383-0.449l-2.626-11.404  c0,0-1.269,0.546-1.407,0.459c0.983,4.159-0.95,4.789-6.512,6.6l-5.426,1.762l-10.854-39.066c3.481-1.159,6.517-2.17,7.555-2.516  c2.946-0.982,10.821-2.3,14.51-0.244l1.215,4.684l1.508-0.502l-3.119-11.943l-1.532,0.514l0.304,1.125l-21.003,7.018l0,0  l-8.681,2.884v0l-5.541,1.837l0.601,1.846c0,0,2.354-0.779,5.525-1.829l11.339,38.838l-5.423,1.751l0.4,1.442l5.413-1.745  l5.253,20.498c-2.892,0.919-5.041,1.602-5.041,1.602l0.481,1.903l31.991-10.219l0.229,1.161L187.276,115.653z"
     id="path4400"
     style="stroke:#000000;stroke-opacity:1;opacity:0.5" /><g
     id="g4402"
     style="stroke:#000000;stroke-opacity:1;opacity:0.5"><rect
       x="260.167"
       y="339.5"
       fill="#FFFFFF"
       width="18.333"
       height="2.167"
       id="rect4404"
       style="stroke:#000000;stroke-opacity:1" /><rect
       x="222.625"
       y="339.5"
       fill="#FFFFFF"
       width="22.333"
       height="2.167"
       id="rect4406"
       style="stroke:#000000;stroke-opacity:1" /><path
       fill="#FFFFFF"
       d="M266.417,341.375h7L252.125,407h-1.375l-23.125-65.5L238.5,341l16.095,48.052l9.602-32.525   C265.667,353,267.542,345.25,266.417,341.375z"
       id="path4408"
       style="stroke:#000000;stroke-opacity:1" /></g><g
     id="g4410"
     style="stroke:#000000;stroke-opacity:1;opacity:0.5"><rect
       x="161.667"
       y="404.833"
       fill="#FFFFFF"
       width="18.333"
       height="2.167"
       id="rect4412"
       style="stroke:#000000;stroke-opacity:1" /><rect
       x="200.292"
       y="404.833"
       fill="#FFFFFF"
       width="22.333"
       height="2.167"
       id="rect4414"
       style="stroke:#000000;stroke-opacity:1" /><rect
       x="170.125"
       y="382.25"
       fill="#FFFFFF"
       width="48.625"
       height="1.5"
       id="rect4416"
       style="stroke:#000000;stroke-opacity:1" /><path
       fill="#FFFFFF"
       d="M173.75,405.125h-7l26.375-65.625h1.375l23.125,65.5l-10.875,0.5L189.5,354l-13.529,35.974   C174.5,393.5,172.625,401.25,173.75,405.125z"
       id="path4418"
       style="stroke:#000000;stroke-opacity:1" /><path
       fill="#FFFFFF"
       d="M175.375,382.25c-1.125,0-3.083-0.25-4.542-1C170.75,381.5,168,385.5,168,385.5h1.5   c0,0,2.625-1.75,5.125-1.75S175.375,382.25,175.375,382.25z"
       id="path4420"
       style="stroke:#000000;stroke-opacity:1" /></g><path
     fill="#FFFFFF"
     d="M313.114,93.27l0.241-1.48l-7.266-1.182l-5.113-44.144l-1.092-0.177l-20.494,39.979l-0.459-0.075  c-0.895-0.146-2.401-0.646-3.436-1.572c-0.031,0.069-0.3,0.433-0.66,0.906l-0.062-0.01l-0.019,0.116  c-0.869,1.138-2.189,2.818-2.189,2.818l1.19,0.193c0,0,2.364-1.389,4.348-1.066c0.002,0,0.004,0,0.006,0l0.562,0.092l-10.107,19.716  l-4.126-0.671l-0.348,2.139l14.546,2.365l0.349-2.139l-5.013-0.815c-0.128-4.031,2.508-11.159,4.201-14.371l2.856-5.841  l16.784,2.729l2.219,21.721l-4.946-0.805l-0.349,2.139l17.72,2.882l0.348-2.139l-4.013-0.653l-2.522-21.77L313.114,93.27z   M281.718,86.644l12.964-26.513l2.974,29.104L281.718,86.644z"
     id="path4422"
     style="stroke:#000000;stroke-opacity:1;opacity:0.5" /><g
     id="g4424"
     style="stroke:#000000;stroke-opacity:1;opacity:0.5"><rect
       x="324.792"
       y="404.833"
       fill="#FFFFFF"
       width="22.333"
       height="2.167"
       id="rect4426"
       style="stroke:#000000;stroke-opacity:1" /><rect
       x="331.459"
       y="339.667"
       fill="#FFFFFF"
       width="9.666"
       height="66"
       id="rect4428"
       style="stroke:#000000;stroke-opacity:1" /><path
       fill="#FFFFFF"
       d="M361.625,363.25c0-8.375-2.25-21.875-11.625-21.875s-25.25,0-25.25,0v-1.75c0,0,20.125,0,25.125,0   s22.688,7.75,22.688,22.688c0,6.438-7.188,19.313-19.063,20.938c8.375,2,12.125,7.875,12.125,13.25s-0.875,8.25,2.625,8.25   s6.125-3.75,6.125-3.75l0.875,1.375c0,0-2.25,4.375-9.125,4.375s-9.375-2.75-9.375-6.625S358.125,384,350.125,384s-25.5,0-25.5,0   v-2.25c0,0,25.75,0,28,0S361.625,381.25,361.625,363.25z"
       id="path4430"
       style="stroke:#000000;stroke-opacity:1" /></g><path
     fill="#FFFFFF"
     d="M359.26,59.291c-4.652-1.687-23.794-8.626-23.794-8.626l-0.731,1.653c0,0,2.677,0.971,6.424,2.33  l-15.495,38.667c-3.387-1.231-5.899-2.144-5.899-2.144l-0.714,2.208c0,0,2.479,0.901,5.864,2.132l-6.389,20.521l-5.403-1.97  l-0.575,2.165l17.738,6.473l0.684-2.128l-4.723-1.724l6.843-20.364c2.814,1.024,5.507,2.004,7.484,2.724  c6.552,2.386,0.861,13.763-0.514,17.517c-1.338,3.766-0.36,7.143,4.84,9.047c5.134,1.881,8.462-1.709,8.462-1.709l-0.125-1.558  c0,0-3.392,2.881-6.018,1.918c-2.645-0.968-0.94-3.503,1.058-8.678c2.063-5.152,1.391-11.852-4.643-16.246  c10.32,1.973,21.805-7.993,24.813-13.972C375.831,73.801,363.876,60.963,359.26,59.291z M358.748,85.032  c-7.682,16.975-13.405,15.441-15.26,14.766c-0.775-0.283-4.954-1.802-9.602-3.493l16.4-38.347c2.935,1.064,5.834,2.115,8.252,2.991  C367.12,64.059,362.593,77.232,358.748,85.032z"
     id="path4432"
     style="stroke:#000000;stroke-opacity:1;opacity:0.5" /><g
     id="g4434"
     style="stroke:#000000;stroke-opacity:1;opacity:0.5"><rect
       x="378.417"
       y="404.833"
       fill="#FFFFFF"
       width="18.833"
       height="2.167"
       id="rect4436"
       style="stroke:#000000;stroke-opacity:1" /><path
       fill="#FFFFFF"
       d="M387.25,346.5c0,0,0,31.375,0,36.375s-1.75,20.125-2.75,22.25c0.125,0,6.5,0,6.5,0   c-1.625-5.5-1.875-12.125-1.875-22.375s0-34,0-34L387.25,346.5z"
       id="path4438"
       style="stroke:#000000;stroke-opacity:1" /><rect
       x="412.542"
       y="339"
       fill="#FFFFFF"
       width="18.833"
       height="2.167"
       id="rect4440"
       style="stroke:#000000;stroke-opacity:1" /><path
       fill="#FFFFFF"
       d="M422.542,406.875c0,0,0-38.75,0-43.75s1.75-20.125,2.75-22.25c-0.125,0-6.5,0-6.5,0   c1.625,5.5,1.875,12.125,1.875,22.375s0,37.5,0,37.5L422.542,406.875z"
       id="path4442"
       style="stroke:#000000;stroke-opacity:1" /><polygon
       fill="#FFFFFF"
       points="422.542,406.875 381.875,341.125 375.375,341.125 375.375,339.75 391.25,339.75 421,390.25  "
       id="polygon4444"
       style="stroke:#000000;stroke-opacity:1" /></g><polygon
     fill="#FFFFFF"
     points="390.625,76 361.375,133.5 356.625,130.625 355.75,132.625 370.5,140.875 371.375,139.25   367.375,136.875 375.375,122.75 377.125,122.25 378.875,143.875 376.25,141.625 375.625,143.375 388.875,153.125 390,151.125   386.25,148.625 383.75,117.75 423.625,96.625 429,100.125 430.125,99 413.375,87 412.5,88.375 417.375,92.375 376.25,120.875   398.625,81.125 404.75,84.375 405.625,82.75 385.25,71.375 384.5,73.25 "
     id="polygon4446"
     style="stroke:#000000;stroke-opacity:1;opacity:0.5" /><path
     fill="#FFFFFF"
     d="M222.875,110.375l-16.375,1.5l-0.125-1.625l5.75-1c0,0-0.875-15.125-1.375-21S207.125,56,207.125,56  l-6.875-9.5L194,47.375l-0.75-1.75l15.625-2L233.75,81.75L247,41.25h17.5v2h-6.875l-0.75,63.875h4.375v2.25h-18V107H249l-0.75-62.5  L231.5,95.75L209,59.25l3.25,28.375L217,108.25l5.5,0.25L222.875,110.375z"
     id="path4448"
     style="stroke:#000000;stroke-opacity:1;opacity:0.5" /><path
     fill="#FFFFFF"
     d="M98.375,74.75l-20,10.25l1,1.75l5.75-2.875L104.5,120.25c0,0-3.875,2-5.375,1.625  c0-0.125-0.875,0.625-0.875,0.625l2.5,3.25l0.75-0.375c0,0,0.375-2,3.625-3.75C105.25,121.5,115.5,140.25,115.5,140.25l-4.875,2.375  l0.625,2L127,136.25l-0.75-1.375l-4.625,1.75l-9.25-18.875L128.5,111l8.375,18.875L131.75,132l0.625,1.875l16.625-6.75l-0.75-1.75  l-4.25,1l-7.25-19l5-1.75L141,104l-5.25,1.5L120,67.625l7-3.125l-0.75-1.5l-21.375,9l0.625,1.75l6.375-2.125l15.875,37.125l-16,7.25  L93.875,79.625l5.5-3.375L98.375,74.75z"
     id="path4450"
     style="stroke:#000000;stroke-opacity:1;opacity:0.5" /></svg>