<?xml version="1.0" encoding="utf-8"?>
<!-- Generator: Adobe Illustrator 16.0.0, SVG Export Plug-In . SVG Version: 6.00 Build 0)  -->
<!DOCTYPE svg PUBLIC "-//W3C//DTD SVG 1.1//EN" "http://www.w3.org/Graphics/SVG/1.1/DTD/svg11.dtd">
<svg version="1.1" id="Layer_1" xmlns="http://www.w3.org/2000/svg" xmlns:xlink="http://www.w3.org/1999/xlink" x="0px" y="0px"
	 width="416.667px" height="251.667px" viewBox="0 0 416.667 251.667" enable-background="new 0 0 416.667 251.667"
	 xml:space="preserve">
<g>
	<path fill="#FFFFFF" d="M390.833,167.5c-3.5,1.25-14.25-9-17.25-12.25c-1-2.5-0.75-11.5-1.75-16c17-3,27-16.5,29.5-28
		c-2.25,0.5-12.5,1.25-20.75,0s-15.25,0.5-22.5,2.25c-16-44.25-102.25-91.75-174.5-95s-111.5,14-135.5,30
		c-20.5,7.75-28.25,20.75-30,32c-1,10.5,15,17.75,15,29.5c0,8.764-6.25,10.25-9.5,13.5s-5,15.25-1.75,22.5
		c-0.5-3.75,5.75-10.75,10.25-13.75s2.75-7.75,3.5-17.75c1.5,10.25,15.75,25.5,22.5,29.75c1.25,2.25,4.25,11.5,4.25,11.5
		l-0.25,10.75c0,0,13.25,25.25,14,34.25S64.333,210,61.333,207c-3,3-11.5,1.25-11.5,1.25l1.75,15.5h303.25
		c-0.375-6-7.375-17.125-9.875-19.5l-1-4.625l-1,3.75l-2.375-0.25c0,0-1,3.375-1.875,3.875c-0.375-2,1.5-8.125,1.5-8.125
		l-3.75,4.625l-0.625-7.125l-1.625,7.25l-1.875-0.375l-0.75-3.625l-0.625,4.25l-1.75-0.125l-0.625-3.125l-0.625,3l-2.75-2.875
		l0.125,3.875l-2.125-3.125c0,0,1,3.625,0.625,5.375c0-0.5-2.375-6-4-8.875c1.875,6.75-1.125,7.125-4.25,10
		c0.375-0.25,0.5-5.625,0.25-6.125c-0.625,1.75-1.5,3.5-3.125,4.125c-1-3.5,1.75-8.25,3.125-10.375c-2,1.375-4.375,2.5-5.375,6.25
		c0-1.25-1-6.25-2.375-8.125c0.625,2.75-0.5,4.75,0,8.75c-2.75-4.25-5.5-15.25-6-27.5s3-23,5-29.75c1,7.75,1,9.75-0.25,15.5
		s0,17,0,23.75c24.75,14.75,41.25,6.25,52.75,5.5c4.66-0.304,10,3,13,3.5s4.5-2.75,4.5-2.75s-1.75-0.5-2.75-1
		c2.25-2,4.75,0.25,7.25,0.75s7.5,0.5,8.5-1.5s7.5-17,9-20.75C398.583,164,394.333,166.25,390.833,167.5z M31.5,92.5
		c-10.5-17.667-1-22.833,3.167-24.833C32,72,31.334,85.167,31.5,92.5z M286.833,206.875c0,0-6.75,0.5-6.5-1.75s2.5-4,2.5-4
		l-3.25,1.625l-1.625-3.125l-0.5,3.375c0,0-2.875-1.125-5-0.5c2.625,0.5,3.625,4.375,2,5.375s-5.375-4.375-5.125-8.375
		c-0.25-0.375-0.625,2-0.625,2l-1.875-0.625l1.375,4.625l-10.5-8.5c0,0-1.125-10.75-0.875-12.375s6-8.5,6.875-11.5
		c-3-4.25-8-11.125-8.125-13.625c-1.75,1.875-15.625,7.75-20,8.75c1.375,8.125,4.625,12.75,5.625,14.875c0,4.5-0.125,19-0.125,19
		l-3.375-6.375l0.875,5.875l-3.75-1.875l3,4.75l-2.375-1l-0.25,2.5l-4.625-6c0,0,1.625-2.5,1.375-6.625
		c-0.75,1.125-2.875,6.375-7.375,7.625c0.25-0.75-0.375-2.625-0.375-2.625l-2.375,1.25l4-3.625l-12.375,6.125l-2.625-5.75
		l-0.625,2.875l-4.125-3.625l2.125,7l-2.25-2l-1.25-0.125l-0.125-3.875l-1.5,2c0,0-5.625-5.125-8.125-10.625
		c0.5,3.875,5.375,10.125,6.5,11.75c-0.125,1-1.625,2-1.625,2l-4.375-6.375l0.25,5.25L193.833,202l-2.125-3.125l-0.75,3.625
		l-5.625-1.25c0,0-4.375-8.125-7.625-11.375c1,4.125,1.5,9.125,1.5,9.125s-2.625-4.5-2.625-6c-0.625,2.5,0,4.25,0,4.25l-6.125-4
		c0,0,4.875,4.375,5.625,6.5c-0.125,3.75-1.25,5.75-2.875,5.125c0.5-1.75,0.625-3.625,0.625-3.625l-2.5,1.375l-0.75-3.75
		l-0.75,4.375l-4-5.125l-0.5,2.375c0,0-6-4-6.625-6.875c0,1.75,2.125,6.5,2.875,7.5c-2.375-0.875-3.125-4-3.125-4l-0.875,4.375
		l-2.875-5.5l-1,4.75l-1.5,2.125l-0.125-4.25l-2.125,1.875c0,0-0.625-4.25,0.875-7.75c-0.75-0.25-2.375,1.875-2.375,1.875l-0.375-6
		l-1.75,7.625l-0.375,7.75l-2.75-0.125l-1-7.5l-2.5,7.375c0,0-4.625-3.875-5.625-5.625c-0.75,2,0.625,4.625,0.625,4.625
		s-7-4.625-10.375-7.5c3.375-1.75,4.25-5.5,2.25-9.25c0.375,2.625-1.25,8.125-5.125,7.5c-7.75-11.375-11.875-27.25-15-35.625
		c-4-2.375-9.75-9.5-10.25-10.125c-1.625,5.625-6.5,20-5.625,28.125c5.125,6,12.625,15.75,12.625,17.25s-1.625,5.125-3.5,5.5
		c-0.875-3.5-1.25-6-1.25-6l-1.75,6.125l-1.25-2.625l0.25-9.375l-4,10.375c0,0-1.75-1-1.875-1.875s2.375-4.5,2.375-4.5l-3,0.5
		l3.75-3.875l-4,1.375c0,0-2.25-4.5-2.25-10s1.375-24.875,8.25-35.125c7.625-9.625,20.375-19.75,28.375-28.5
		c-3.625,10.75-20,22.375-24.625,29.125c6.25,9,22.5,30.625,69.375,30.625c20.875,0,68.5-5.5,86.125-17.875
		c-2.875-7.125-5.625-22.75,0.375-35.5c-0.625,8-1.5,20.875,1.625,30.125c3.924,11.616,19.125,35,26.375,40.375
		c0,0.375-0.125,2.25-0.125,2.25l7,8.75L286.833,206.875z"/>
	<path fill="#FFFFFF" d="M372.833,108.5c0,0,4.167-9.333,4.5-12.5c-1.667,3.5-16.5,6-22,5.667c0.667,1,5.167,9.333,5.167,9.333
		C361.334,110.5,367.333,108.5,372.833,108.5z"/>
</g>
</svg>
