<?xml version="1.0" encoding="UTF-8" standalone="no"?>
<!-- Generator: Adobe Illustrator 16.0.0, SVG Export Plug-In . SVG Version: 6.00 Build 0)  -->

<svg
   xmlns:dc="http://purl.org/dc/elements/1.1/"
   xmlns:cc="http://creativecommons.org/ns#"
   xmlns:rdf="http://www.w3.org/1999/02/22-rdf-syntax-ns#"
   xmlns:svg="http://www.w3.org/2000/svg"
   xmlns="http://www.w3.org/2000/svg"
   xmlns:sodipodi="http://sodipodi.sourceforge.net/DTD/sodipodi-0.dtd"
   xmlns:inkscape="http://www.inkscape.org/namespaces/inkscape"
   version="1.1"
   id="Layer_1"
   x="0px"
   y="0px"
   width="416.667px"
   height="251.667px"
   viewBox="0 0 416.667 251.667"
   enable-background="new 0 0 416.667 251.667"
   xml:space="preserve"
   inkscape:version="0.91 r13725"
   sodipodi:docname="pig_beige.svg"><metadata
     id="metadata3531"><rdf:RDF><cc:Work
         rdf:about=""><dc:format>image/svg+xml</dc:format><dc:type
           rdf:resource="http://purl.org/dc/dcmitype/StillImage" /></cc:Work></rdf:RDF></metadata><defs
     id="defs3529" /><sodipodi:namedview
     pagecolor="#ffffff"
     bordercolor="#666666"
     borderopacity="1"
     objecttolerance="10"
     gridtolerance="10"
     guidetolerance="10"
     inkscape:pageopacity="0"
     inkscape:pageshadow="2"
     inkscape:window-width="1535"
     inkscape:window-height="876"
     id="namedview3527"
     showgrid="false"
     inkscape:zoom="2.9364199"
     inkscape:cx="208.3335"
     inkscape:cy="125.8335"
     inkscape:window-x="65"
     inkscape:window-y="24"
     inkscape:window-maximized="1"
     inkscape:current-layer="Layer_1" /><g
     id="g3521"
     style="fill:#ffeeaa"><path
       fill="#FFFFFF"
       d="M390.833,167.5c-3.5,1.25-14.25-9-17.25-12.25c-1-2.5-0.75-11.5-1.75-16c17-3,27-16.5,29.5-28   c-2.25,0.5-12.5,1.25-20.75,0s-15.25,0.5-22.5,2.25c-16-44.25-102.25-91.75-174.5-95s-111.5,14-135.5,30   c-20.5,7.75-28.25,20.75-30,32c-1,10.5,15,17.75,15,29.5c0,8.764-6.25,10.25-9.5,13.5s-5,15.25-1.75,22.5   c-0.5-3.75,5.75-10.75,10.25-13.75s2.75-7.75,3.5-17.75c1.5,10.25,15.75,25.5,22.5,29.75c1.25,2.25,4.25,11.5,4.25,11.5   l-0.25,10.75c0,0,13.25,25.25,14,34.25S64.333,210,61.333,207c-3,3-11.5,1.25-11.5,1.25l1.75,15.5h303.25   c-0.375-6-7.375-17.125-9.875-19.5l-1-4.625l-1,3.75l-2.375-0.25c0,0-1,3.375-1.875,3.875c-0.375-2,1.5-8.125,1.5-8.125   l-3.75,4.625l-0.625-7.125l-1.625,7.25l-1.875-0.375l-0.75-3.625l-0.625,4.25l-1.75-0.125l-0.625-3.125l-0.625,3l-2.75-2.875   l0.125,3.875l-2.125-3.125c0,0,1,3.625,0.625,5.375c0-0.5-2.375-6-4-8.875c1.875,6.75-1.125,7.125-4.25,10   c0.375-0.25,0.5-5.625,0.25-6.125c-0.625,1.75-1.5,3.5-3.125,4.125c-1-3.5,1.75-8.25,3.125-10.375c-2,1.375-4.375,2.5-5.375,6.25   c0-1.25-1-6.25-2.375-8.125c0.625,2.75-0.5,4.75,0,8.75c-2.75-4.25-5.5-15.25-6-27.5s3-23,5-29.75c1,7.75,1,9.75-0.25,15.5   s0,17,0,23.75c24.75,14.75,41.25,6.25,52.75,5.5c4.66-0.304,10,3,13,3.5s4.5-2.75,4.5-2.75s-1.75-0.5-2.75-1   c2.25-2,4.75,0.25,7.25,0.75s7.5,0.5,8.5-1.5s7.5-17,9-20.75C398.583,164,394.333,166.25,390.833,167.5z M31.5,92.5   c-10.5-17.667-1-22.833,3.167-24.833C32,72,31.334,85.167,31.5,92.5z M286.833,206.875c0,0-6.75,0.5-6.5-1.75s2.5-4,2.5-4   l-3.25,1.625l-1.625-3.125l-0.5,3.375c0,0-2.875-1.125-5-0.5c2.625,0.5,3.625,4.375,2,5.375s-5.375-4.375-5.125-8.375   c-0.25-0.375-0.625,2-0.625,2l-1.875-0.625l1.375,4.625l-10.5-8.5c0,0-1.125-10.75-0.875-12.375s6-8.5,6.875-11.5   c-3-4.25-8-11.125-8.125-13.625c-1.75,1.875-15.625,7.75-20,8.75c1.375,8.125,4.625,12.75,5.625,14.875c0,4.5-0.125,19-0.125,19   l-3.375-6.375l0.875,5.875l-3.75-1.875l3,4.75l-2.375-1l-0.25,2.5l-4.625-6c0,0,1.625-2.5,1.375-6.625   c-0.75,1.125-2.875,6.375-7.375,7.625c0.25-0.75-0.375-2.625-0.375-2.625l-2.375,1.25l4-3.625l-12.375,6.125l-2.625-5.75   l-0.625,2.875l-4.125-3.625l2.125,7l-2.25-2l-1.25-0.125l-0.125-3.875l-1.5,2c0,0-5.625-5.125-8.125-10.625   c0.5,3.875,5.375,10.125,6.5,11.75c-0.125,1-1.625,2-1.625,2l-4.375-6.375l0.25,5.25L193.833,202l-2.125-3.125l-0.75,3.625   l-5.625-1.25c0,0-4.375-8.125-7.625-11.375c1,4.125,1.5,9.125,1.5,9.125s-2.625-4.5-2.625-6c-0.625,2.5,0,4.25,0,4.25l-6.125-4   c0,0,4.875,4.375,5.625,6.5c-0.125,3.75-1.25,5.75-2.875,5.125c0.5-1.75,0.625-3.625,0.625-3.625l-2.5,1.375l-0.75-3.75   l-0.75,4.375l-4-5.125l-0.5,2.375c0,0-6-4-6.625-6.875c0,1.75,2.125,6.5,2.875,7.5c-2.375-0.875-3.125-4-3.125-4l-0.875,4.375   l-2.875-5.5l-1,4.75l-1.5,2.125l-0.125-4.25l-2.125,1.875c0,0-0.625-4.25,0.875-7.75c-0.75-0.25-2.375,1.875-2.375,1.875l-0.375-6   l-1.75,7.625l-0.375,7.75l-2.75-0.125l-1-7.5l-2.5,7.375c0,0-4.625-3.875-5.625-5.625c-0.75,2,0.625,4.625,0.625,4.625   s-7-4.625-10.375-7.5c3.375-1.75,4.25-5.5,2.25-9.25c0.375,2.625-1.25,8.125-5.125,7.5c-7.75-11.375-11.875-27.25-15-35.625   c-4-2.375-9.75-9.5-10.25-10.125c-1.625,5.625-6.5,20-5.625,28.125c5.125,6,12.625,15.75,12.625,17.25s-1.625,5.125-3.5,5.5   c-0.875-3.5-1.25-6-1.25-6l-1.75,6.125l-1.25-2.625l0.25-9.375l-4,10.375c0,0-1.75-1-1.875-1.875s2.375-4.5,2.375-4.5l-3,0.5   l3.75-3.875l-4,1.375c0,0-2.25-4.5-2.25-10s1.375-24.875,8.25-35.125c7.625-9.625,20.375-19.75,28.375-28.5   c-3.625,10.75-20,22.375-24.625,29.125c6.25,9,22.5,30.625,69.375,30.625c20.875,0,68.5-5.5,86.125-17.875   c-2.875-7.125-5.625-22.75,0.375-35.5c-0.625,8-1.5,20.875,1.625,30.125c3.924,11.616,19.125,35,26.375,40.375   c0,0.375-0.125,2.25-0.125,2.25l7,8.75L286.833,206.875z"
       id="path3523"
       style="fill:#ffeeaa" /><path
       fill="#FFFFFF"
       d="M372.833,108.5c0,0,4.167-9.333,4.5-12.5c-1.667,3.5-16.5,6-22,5.667c0.667,1,5.167,9.333,5.167,9.333   C361.334,110.5,367.333,108.5,372.833,108.5z"
       id="path3525"
       style="fill:#ffeeaa" /></g><path
     style="fill:none;stroke:#ffeeaa"
     d="m 51.612039,222.94593 c 0,-0.64718 -1.292162,-12.14078 -1.507056,-13.40505 l -0.144713,-0.85138 4.316531,0 c 3.635427,0 4.53147,-0.10747 5.678731,-0.6811 1.343095,-0.67154 1.380719,-0.67206 2.682161,-0.0366 1.854912,0.90571 5.42887,1.10289 7.751562,0.42766 3.92055,-1.13973 5.727079,-3.30118 5.736836,-6.86392 0.0126,-4.60602 -3.660117,-14.38998 -10.985847,-29.26573 l -3.00927,-6.11068 0.220146,-5.1275 0.220145,-5.12749 -1.536643,-4.42716 c -2.344402,-6.75436 -2.516207,-7.06409 -4.911685,-8.85464 -1.171413,-0.8756 -3.480398,-2.93358 -5.131079,-4.5733 -7.370776,-7.3218 -12.800507,-15.14313 -14.556216,-20.96769 -0.338755,-1.12382 -0.72218,-2.17047 -0.852055,-2.3259 -0.129876,-0.15544 -0.301613,2.67965 -0.381638,6.30018 -0.179696,8.12995 -0.406012,8.80313 -3.898307,11.5957 -4.529709,3.62211 -8.526109,8.38897 -9.16406,10.93077 -0.73098,2.91245 -1.693307,-1.37395 -1.668064,-7.42991 0.0215,-5.15884 0.515315,-7.75122 2.055437,-10.79051 0.651025,-1.28473 1.543199,-2.16863 4.080243,-4.04238 4.730766,-3.49395 6.141849,-5.74934 6.513532,-10.41087 0.354873,-4.45069 -1.314715,-8.26115 -6.295643,-14.368384 -7.047584,-8.641213 -8.216912,-10.589609 -8.493987,-14.153122 -0.330137,-4.245949 2.810872,-12.510466 6.69897,-17.6261 2.343323,-3.083149 6.788771,-7.221093 10.254254,-9.54494 2.670933,-1.791044 8.796214,-5.012269 11.560004,-6.079291 0.655561,-0.253093 2.80103,-1.475616 4.767711,-2.716717 21.834187,-13.778767 46.994175,-22.198459 77.815851,-26.040773 22.77706,-2.839451 53.47407,-2.77493 73.59222,0.154681 44.21679,6.438861 92.14254,27.322718 124.60832,54.298624 5.32019,4.42056 14.59602,13.711224 18.21099,18.240113 4.9488,6.199931 9.53439,13.761809 11.431,18.850319 0.71096,1.90748 -3.2e-4,1.87214 6.96721,0.34615 3.67076,-0.80396 5.05401,-0.9354 10.04625,-0.95467 3.18415,-0.0123 7.93483,0.19 10.55707,0.44951 4.57176,0.45246 12.46205,0.35611 15.16868,-0.18521 1.07971,-0.21594 1.08278,-0.21252 0.8433,0.94025 -0.13216,0.63633 -0.75752,2.44256 -1.38972,4.01384 -2.95914,7.35514 -8.7214,14.04229 -15.64391,18.15498 -2.48786,1.47804 -7.46739,3.46294 -10.15141,4.04646 l -1.97819,0.43007 0.198,1.21839 c 0.1089,0.67012 0.41945,4.09258 0.69009,7.60548 0.27063,3.5129 0.64071,6.6648 0.82236,7.00422 0.53531,1.00022 6.97874,7.04166 9.65386,9.05157 2.93593,2.20585 5.62022,3.60926 6.90344,3.60926 0.51206,0 1.99311,-0.38312 3.29122,-0.85138 3.50015,-1.26258 4.94933,-1.0565 5.53443,0.78702 0.17201,0.54193 -6.51433,16.65253 -8.59737,20.71523 -0.90379,1.76269 -1.96437,2.16603 -5.69561,2.16603 -2.15998,0 -3.32238,-0.19538 -5.06522,-0.85138 -2.56894,-0.96695 -3.42046,-1.03035 -4.6302,-0.34472 l -0.85137,0.48252 1.42667,0.5706 c 1.37868,0.55141 1.4095,0.59678 0.91656,1.3491 -0.28055,0.42818 -1.04808,1.03379 -1.70558,1.34581 -1.33643,0.63417 -1.77407,0.53521 -8.47032,-1.91547 -4.04186,-1.47922 -7.03108,-1.48341 -14.81396,-0.0207 -8.76272,1.64681 -11.16284,1.8764 -17.36809,1.66142 -8.35125,-0.28933 -14.14959,-1.81513 -22.3567,-5.88303 l -4.4778,-2.21944 -0.26942,-5.00514 c -0.52005,-9.66108 -0.36446,-16.15482 0.50343,-21.01102 0.59748,-3.34309 0.73884,-5.05258 0.5773,-6.98129 -0.41951,-5.00888 -0.63634,-6.50998 -0.90088,-6.23672 -0.39203,0.40497 -2.85261,9.57981 -3.68302,13.73301 -0.97919,4.89731 -1.39918,8.98662 -1.3986,13.61786 0.001,9.28972 2.2758,21.97882 4.98382,27.80207 l 0.92827,1.99612 0.31629,-3.87148 c 0.35004,-4.28466 0.58626,-4.34708 1.45855,-0.38541 0.83072,3.77292 0.80367,3.73596 1.56477,2.13798 0.63947,-1.34261 3.22449,-4.07236 3.54907,-3.74778 0.0802,0.0802 -0.35058,1.2032 -0.95738,2.49546 -0.81687,1.73965 -1.13856,2.95988 -1.23922,4.70061 -0.12172,2.10498 -0.0752,2.32774 0.44412,2.12844 0.31903,-0.12242 0.64753,-0.22259 0.72999,-0.22259 0.0825,0 0.62317,-0.72793 1.2016,-1.61762 l 1.05167,-1.61761 -0.21921,2.85081 -0.21921,2.85081 1.62903,-1.36556 c 2.51508,-2.10829 2.92033,-2.68426 3.32912,-4.73149 l 0.37997,-1.90289 1.25869,2.75356 c 0.69227,1.51446 1.25868,2.90371 1.25868,3.08723 0,0.18352 0.1776,0.44343 0.39466,0.57758 0.29181,0.18035 0.33713,-0.32474 0.17391,-1.93807 l -0.22074,-2.18198 0.7626,1.19193 0.7626,1.19192 0.17028,-1.81069 0.17027,-1.8107 1.18593,1.22746 1.18592,1.22745 0.40578,-1.11951 c 0.37611,-1.03765 0.40768,-1.05601 0.43169,-0.25111 0.0324,1.08561 0.61142,1.68573 1.6265,1.68573 0.62164,0 0.78821,-0.19326 0.80721,-0.93652 0.0131,-0.51508 0.15563,-1.24301 0.31661,-1.61761 0.26869,-0.62529 0.29507,-0.61134 0.32183,0.17027 0.0423,1.23504 0.45919,1.71976 1.54917,1.80113 0.93314,0.0697 0.98071,-0.007 1.53141,-2.48223 0.78033,-3.50673 0.96597,-3.85389 1.00161,-1.87303 0.0375,2.08239 0.37832,4.26171 0.66366,4.24323 0.11597,-0.008 0.81083,-0.774 1.54414,-1.7033 0.7333,-0.9293 1.37835,-1.64456 1.43345,-1.58946 0.0551,0.0551 -0.10777,0.93652 -0.36192,1.95871 -1.19587,4.80963 -0.82311,6.55627 0.69262,3.24548 0.80704,-1.76281 0.95147,-1.89777 2.03089,-1.89777 1.10134,0 1.18324,-0.0841 1.56746,-1.60998 l 0.40539,-1.60998 0.45698,2.0121 c 0.30228,1.33102 0.90312,2.59645 1.77503,3.73842 1.97484,2.58654 3.56952,5.20367 5.44161,8.93057 1.44372,2.87411 3.10412,7.32807 3.10412,8.32667 0,0.17875 -62.63703,0.30468 -151.54509,0.30468 -140.121888,0 -151.545081,-0.042 -151.545081,-0.55753 z M 275.00135,207.51996 c 0.67075,-1.25331 0.40347,-2.66507 -0.75426,-3.9839 l -1.10679,-1.26081 1.53248,0.24359 c 0.84287,0.13398 1.87729,0.3295 2.29872,0.4345 0.66884,0.16665 0.76624,0.0589 0.76624,-0.84756 0,-1.459 0.55311,-1.63291 1.20206,-0.37797 0.46269,0.89475 0.688,1.02888 1.41978,0.84521 0.74086,-0.18594 0.83302,-0.12738 0.62163,0.39496 -0.9027,2.2306 -0.94641,2.54544 -0.4257,3.06616 0.58716,0.58715 2.7861,1.08586 4.88572,1.10805 1.34883,0.0143 1.45703,-0.0669 2.78784,-2.092 l 1.38454,-2.10684 -0.96426,-1.21353 c -0.53035,-0.66745 -2.12893,-2.66939 -3.5524,-4.44877 -2.24901,-2.81132 -2.56342,-3.3691 -2.39951,-4.25688 0.16519,-0.89473 -0.002,-1.18067 -1.34711,-2.30165 -5.05952,-4.21696 -15.20996,-18.95809 -21.16129,-30.73178 -5.31687,-10.5185 -5.76385,-12.63215 -5.77254,-27.29668 -0.004,-6.02264 -0.12177,-10.77332 -0.26266,-10.55707 -0.52308,0.80281 -2.23891,6.60777 -2.68304,9.07722 -0.26125,1.45255 -0.45791,4.90416 -0.45599,8.00294 0.004,5.92801 0.59616,10.13572 2.10616,14.95764 l 0.84484,2.69781 -0.79955,0.62602 c -1.49736,1.17236 -8.96106,4.64047 -12.98149,6.03201 -16.95502,5.86844 -43.13655,10.15877 -67.84749,11.11806 -12.07501,0.46875 -26.35812,-1.14615 -36.29302,-4.10344 -12.53859,-3.73231 -24.27358,-10.81983 -31.33715,-18.92654 -2.61868,-3.00539 -5.758516,-7.11964 -5.758516,-7.54559 0,-0.1937 3.976596,-4.31873 8.836886,-9.16673 4.8603,-4.84801 9.84563,-10.1523 11.07852,-11.78732 2.12777,-2.82177 4.78947,-7.49849 4.45694,-7.83102 -0.085,-0.0851 -1.43109,1.12651 -2.9912,2.69236 -1.56011,1.56585 -6.43441,6.24597 -10.83179,10.40026 -10.087242,9.52965 -13.95719,13.79865 -16.071012,17.72819 -2.904666,5.39972 -5.112392,13.66358 -6.210536,23.24703 -0.946574,8.2607 -0.622608,13.88249 1.039368,18.03617 0.476008,1.18966 0.692605,1.39603 1.290401,1.22949 2.559576,-0.7131 2.519923,-0.7512 0.973792,0.93547 -0.796038,0.86839 -1.447341,1.64437 -1.447341,1.72438 0,0.08 0.62329,0.0619 1.385085,-0.0403 l 1.385088,-0.18578 -1.044538,1.64706 c -0.574492,0.90588 -1.044534,1.98906 -1.044534,2.40705 0,0.81285 1.660982,2.36867 2.056154,1.92598 0.130189,-0.14585 0.961211,-2.18078 1.846711,-4.52207 0.8855,-2.34129 1.693457,-4.33351 1.795462,-4.42716 0.102005,-0.0937 0.09238,1.64588 -0.02139,3.86563 -0.184722,3.60429 -0.134402,4.1779 0.470535,5.36367 0.372559,0.73028 0.747046,1.32777 0.83219,1.32777 0.08515,0 0.497388,-1.179 0.916089,-2.61999 l 0.761274,-2.62 0.524332,2.42384 c 0.288382,1.33311 0.634487,2.53287 0.769117,2.66613 0.778779,0.77083 3.671549,-3.28096 3.671549,-5.14258 0,-1.24898 -3.644107,-6.4838 -9.768855,-14.03311 l -2.831519,-3.4901 0,-2.85062 c 0,-4.5314 1.553722,-12.01802 4.425426,-21.32395 l 1.076277,-3.48774 1.73214,1.99647 c 2.288141,2.63733 6.271311,6.48636 7.406101,7.1567 0.75728,0.44734 1.23114,1.49271 2.88818,6.3715 4.83601,14.23862 7.78504,21.32146 11.32754,27.20593 1.48287,2.46319 1.66613,2.63926 2.74709,2.63926 1.5293,0 3.257,-1.70224 3.81933,-3.76305 0.69138,-2.53373 0.76844,-2.60785 1.12176,-1.07899 0.46399,2.00781 -0.14956,3.87454 -1.79991,5.47614 -1.00646,0.97674 -1.21171,1.3523 -0.87353,1.59838 6.79983,4.94796 9.77947,7.01653 9.91363,6.88237 0.0913,-0.0913 0.009,-0.58042 -0.18401,-1.08684 -0.19254,-0.50643 -0.35008,-1.40526 -0.35008,-1.99741 0,-1.07283 0.01,-1.0671 2.71418,1.62163 1.4928,1.48405 2.83372,2.58079 2.97982,2.43722 0.1461,-0.14358 0.74364,-1.66788 1.32785,-3.38736 l 1.06222,-3.1263 0.22306,1.53247 c 0.12268,0.84287 0.33641,2.37535 0.47495,3.40551 l 0.2519,1.87303 1.52778,0 1.52779,0 0.2444,-4.25688 c 0.13442,-2.34129 0.53373,-5.40625 0.88736,-6.81102 l 0.64297,-2.55413 0.26342,2.12844 c 0.14487,1.17065 0.33399,2.12845 0.42024,2.12845 0.0863,0 0.4364,-0.34481 0.77808,-0.76624 0.87428,-1.07835 1.09431,-0.6335 0.66856,1.3517 -0.20129,0.93857 -0.3194,2.59341 -0.26247,3.6774 l 0.1035,1.97091 1.09012,-0.91955 1.09012,-0.91955 0.10181,2.14468 0.10181,2.14469 0.90984,-1.53248 c 0.50041,-0.84286 1.01586,-2.2604 1.14545,-3.15009 0.12959,-0.88969 0.34111,-1.61762 0.47004,-1.61762 0.12894,0 0.76284,0.99482 1.40868,2.21071 0.64584,1.21589 1.2798,2.212 1.4088,2.21358 0.129,0.002 0.33795,-0.68674 0.46435,-1.52961 0.2431,-1.62107 0.6481,-1.97225 0.9991,-0.86633 0.21324,0.67184 2.19216,2.5385 2.43438,2.29628 0.0718,-0.0718 -0.33057,-1.14746 -0.89414,-2.39038 -0.56356,-1.24291 -1.02466,-2.43183 -1.02466,-2.64205 0,-0.2102 0.84708,0.39199 1.8824,1.33822 1.03532,0.94623 2.33856,2.04522 2.89609,2.44221 1.05746,0.75299 1.17284,0.68339 1.4209,-0.85707 0.0858,-0.53269 0.54833,-0.12895 2.14527,1.87251 l 2.0359,2.55163 0.31536,-1.87251 0.31536,-1.87251 0.30377,1.44734 c 0.3329,1.58621 0.49414,1.68972 1.47565,0.94735 1.07726,-0.8148 1.24836,-0.61305 1.0016,1.1811 -0.21716,1.57898 -0.18199,1.70275 0.48388,1.70275 0.95501,0 1.95888,-1.69823 2.24845,-3.80368 0.25317,-1.8407 0.011,-2.38255 -2.11709,-4.73815 -1.4447,-1.59911 -1.24469,-1.68279 0.74697,-0.31249 0.8167,0.56191 1.57224,1.02165 1.67897,1.02165 0.10673,0 0.19406,-0.7236 0.19406,-1.60801 l 0,-1.60801 1.24816,2.54453 c 0.68649,1.39949 1.30263,2.31465 1.3692,2.03369 0.0666,-0.28095 -0.16769,-2.19655 -0.52059,-4.25688 -0.35289,-2.06033 -0.61092,-3.7849 -0.5734,-3.83237 0.14999,-0.18978 3.94154,5.36674 5.46573,8.01003 1.22856,2.13061 1.83925,2.86374 2.51058,3.01397 0.48791,0.10918 1.42348,0.32103 2.07904,0.47076 3.31735,0.75772 2.97441,0.87476 3.24714,-1.10819 0.24556,-1.78545 0.24595,-1.78592 0.79799,-0.95352 1.47832,2.22912 1.53231,2.25899 2.64757,1.46486 0.96985,-0.6906 1.00013,-0.79429 0.8626,-2.95411 -0.0784,-1.23112 -0.0756,-2.2384 0.006,-2.2384 0.0818,0 0.98085,1.22303 1.99784,2.71785 1.01698,1.49482 1.99024,2.7208 2.1628,2.72441 0.51872,0.0108 1.55929,-1.08375 1.55929,-1.64024 0,-0.28576 -0.74285,-1.60293 -1.65078,-2.92703 -2.03682,-2.97046 -3.58768,-5.62602 -3.39699,-5.81671 0.0788,-0.0788 0.78137,0.7327 1.5613,1.80328 0.77994,1.07058 2.25934,2.77699 3.28755,3.79201 l 1.86948,1.8455 0.68587,-0.82385 0.68587,-0.82384 0.0113,1.78789 c 0.009,1.47997 0.11527,1.78789 0.61484,1.78789 0.33193,0 1.17479,0.4709 1.87303,1.04644 0.69823,0.57555 1.2695,0.92036 1.26947,0.76624 -3e-5,-0.15411 -0.38085,-1.50618 -0.84627,-3.00461 -0.46542,-1.49842 -0.84852,-2.87044 -0.85133,-3.04893 -0.003,-0.17849 0.56957,0.2129 1.27196,0.86975 2.34343,2.19152 2.39528,2.20907 2.74769,0.92978 l 0.31251,-1.13445 1.26824,2.62569 1.26823,2.62569 5.07265,-2.54055 c 2.78994,-1.39731 5.18123,-2.54056 5.31396,-2.54056 0.13274,0 -0.27853,0.53637 -0.91392,1.19193 -1.16406,1.201 -1.07526,1.59718 0.15023,0.67027 0.95305,-0.72085 1.11006,-0.63918 1.36298,0.70897 0.19694,1.04979 0.32523,1.1791 0.97441,0.98212 1.6775,-0.50898 4.50072,-3.31689 5.79832,-5.76687 l 0.54111,-1.02165 0.002,1.19193 c 0.001,0.65556 -0.28386,2.02139 -0.63388,3.03519 l -0.6364,1.84326 2.26513,2.98989 c 1.24582,1.64444 2.38007,2.99875 2.52055,3.00958 0.14047,0.0108 0.25541,-0.53306 0.25541,-1.20866 0,-1.0363 0.0932,-1.19 0.59596,-0.98302 0.32778,0.13494 0.88812,0.32873 1.24518,0.43063 0.70516,0.20125 0.72974,0.27091 -0.73496,-2.08262 -0.44814,-0.72008 -0.74135,-1.38268 -0.65159,-1.47245 0.0898,-0.0898 0.62959,0.078 1.1996,0.37272 0.57002,0.29477 1.13848,0.53594 1.26325,0.53594 0.12477,0 0.13256,-1.03442 0.0173,-2.29872 l -0.20956,-2.29871 1.26595,2.46899 c 0.69627,1.35795 1.38571,2.46899 1.53209,2.46899 0.14651,0 0.26628,-4.28978 0.26628,-9.53284 l 0,-9.53284 -1.50592,-2.9824 c -1.99758,-3.95612 -3.94289,-9.51255 -3.94289,-11.26214 0,-0.19183 1.03442,-0.6924 2.29871,-1.11238 3.81339,-1.26677 10.26382,-4.00192 13.88939,-5.88945 l 3.41746,-1.77919 0.83153,1.88964 c 0.45734,1.0393 2.25717,4.01505 3.9996,6.61277 2.17679,3.24527 3.10588,4.91906 2.96933,5.34932 -0.10931,0.3444 -1.57274,2.72524 -3.25207,5.29076 -1.67933,2.56552 -3.14549,5.03178 -3.25813,5.4806 -0.19369,0.77172 0.39358,9.80978 0.76132,11.71677 0.12398,0.64289 1.5922,2.04096 5.29804,5.0449 2.8196,2.28556 5.1975,4.0846 5.28422,3.99787 0.14839,-0.14839 -0.35725,-2.34544 -0.81331,-3.53393 -0.16895,-0.44027 -0.0391,-0.49827 0.69996,-0.31277 0.77843,0.19538 0.9117,0.11793 0.93782,-0.54499 0.0183,-0.4629 0.20142,-0.15828 0.45687,0.75975 0.59979,2.15556 1.69087,4.16911 2.93123,5.40946 1.21214,1.21214 2.18812,1.35759 2.69938,0.40229 z M 32.507915,76.320377 c 0.323109,-2.428022 0.947085,-5.031951 1.975716,-8.244911 0.190598,-0.595337 0.08609,-0.581579 -1.293228,0.170275 -0.825321,0.449875 -2.35722,1.662327 -3.40422,2.694346 -2.315826,2.282681 -3.093404,4.287111 -3.068083,7.908865 0.02335,3.339448 0.732683,5.882238 2.827804,10.13696 l 1.760796,3.575783 0.409203,-6.682345 c 0.225062,-3.675288 0.581467,-7.976826 0.792012,-9.558973 z"
     id="path3533"
     inkscape:connector-curvature="0" /></svg>